<svg xmlns="http://www.w3.org/2000/svg" viewBox="0 0 310 270" shape-rendering="crispEdges">
  <rect x="180" y="0" width="80" height="20" fill="rgb(0,0,0)" />
  <rect x="140" y="20" width="160" height="20" fill="rgb(0,0,0)" />
  <rect x="0" y="40" width="40" height="40" fill="rgb(0,0,0)" />
  <rect x="80" y="40" width="100" height="20" fill="rgb(0,0,0)" />
  <rect x="260" y="40" width="50" height="20" fill="rgb(0,0,0)" />
  <rect x="80" y="60" width="60" height="20" fill="rgb(0,0,0)" />
  <rect x="280" y="60" width="30" height="60" fill="rgb(0,0,0)" />
  <rect x="40" y="80" width="100" height="20" fill="rgb(0,0,0)" />
  <rect x="120" y="100" width="20" height="20" fill="rgb(0,0,0)" />
  <rect x="200" y="100" width="40" height="20" fill="rgb(0,0,0)" />
  <rect x="120" y="120" width="60" height="40" fill="rgb(0,0,0)" />
  <rect x="260" y="120" width="50" height="40" fill="rgb(0,0,0)" />
  <rect x="120" y="160" width="20" height="60" fill="rgb(0,0,0)" />
  <rect x="280" y="160" width="30" height="60" fill="rgb(0,0,0)" />
  <rect x="0" y="220" width="20" height="20" fill="rgb(0,0,0)" />
  <rect x="120" y="220" width="190" height="20" fill="rgb(0,0,0)" />
  <rect x="0" y="240" width="40" height="20" fill="rgb(0,0,0)" />
  <rect x="80" y="240" width="100" height="20" fill="rgb(0,0,0)" />
  <rect x="260" y="240" width="50" height="20" fill="rgb(0,0,0)" />
  <rect x="20" y="260" width="120" height="10" fill="rgb(0,0,0)" />
  <rect x="300" y="260" width="10" height="10" fill="rgb(0,0,0)" />
  <rect x="200" y="120" width="20" height="20" fill="rgb(0,0,2)" />
  <rect x="140" y="160" width="20" height="20" fill="rgb(0,0,5)" />
  <rect x="180" y="120" width="20" height="20" fill="rgb(0,0,6)" />
  <rect x="20" y="200" width="20" height="20" fill="rgb(0,0,6)" />
  <rect x="140" y="180" width="20" height="40" fill="rgb(0,0,7)" />
  <rect x="20" y="180" width="20" height="20" fill="rgb(0,0,15)" />
  <rect x="200" y="200" width="20" height="20" fill="rgb(0,0,15)" />
  <rect x="200" y="140" width="20" height="20" fill="rgb(0,0,34)" />
  <rect x="200" y="160" width="20" height="40" fill="rgb(0,0,37)" />
  <rect x="0" y="200" width="20" height="20" fill="rgb(0,0,52)" />
  <rect x="100" y="180" width="20" height="20" fill="rgb(0,0,63)" />
  <rect x="180" y="200" width="20" height="20" fill="rgb(0,0,65)" />
  <rect x="80" y="180" width="20" height="20" fill="rgb(0,0,89)" />
  <rect x="100" y="200" width="20" height="20" fill="rgb(0,0,90)" />
  <rect x="40" y="200" width="20" height="20" fill="rgb(0,0,97)" />
  <rect x="180" y="140" width="20" height="20" fill="rgb(0,0,98)" />
  <rect x="160" y="160" width="20" height="20" fill="rgb(0,0,98)" />
  <rect x="60" y="200" width="20" height="20" fill="rgb(0,0,102)" />
  <rect x="0" y="160" width="20" height="20" fill="rgb(0,0,105)" />
  <rect x="160" y="180" width="20" height="40" fill="rgb(0,0,120)" />
  <rect x="180" y="160" width="20" height="20" fill="rgb(0,0,123)" />
  <rect x="0" y="180" width="20" height="20" fill="rgb(0,0,128)" />
  <rect x="180" y="180" width="20" height="20" fill="rgb(0,0,128)" />
  <rect x="80" y="200" width="20" height="20" fill="rgb(0,0,128)" />
  <rect x="240" y="100" width="20" height="20" fill="rgb(0,73,0)" />
  <rect x="220" y="40" width="20" height="20" fill="rgb(0,77,0)" />
  <rect x="220" y="80" width="20" height="20" fill="rgb(0,83,0)" />
  <rect x="240" y="40" width="20" height="20" fill="rgb(0,106,0)" />
  <rect x="220" y="60" width="20" height="20" fill="rgb(0,119,0)" />
  <rect x="260" y="100" width="20" height="20" fill="rgb(0,160,0)" />
  <rect x="260" y="60" width="20" height="40" fill="rgb(0,195,0)" />
  <rect x="240" y="80" width="20" height="20" fill="rgb(0,205,0)" />
  <rect x="240" y="60" width="20" height="20" fill="rgb(0,255,0)" />
  <rect x="20" y="140" width="20" height="20" fill="rgb(1,0,0)" />
  <rect x="40" y="120" width="20" height="20" fill="rgb(2,192,192)" />
  <rect x="220" y="120" width="20" height="20" fill="rgb(7,7,0)" />
  <rect x="20" y="80" width="20" height="20" fill="rgb(8,0,0)" />
  <rect x="240" y="120" width="20" height="20" fill="rgb(9,9,0)" />
  <rect x="140" y="100" width="20" height="20" fill="rgb(11,0,0)" />
  <rect x="140" y="60" width="20" height="40" fill="rgb(14,0,0)" />
  <rect x="20" y="120" width="20" height="20" fill="rgb(28,0,0)" />
  <rect x="180" y="100" width="20" height="20" fill="rgb(37,0,0)" />
  <rect x="200" y="40" width="20" height="20" fill="rgb(48,0,0)" />
  <rect x="220" y="200" width="20" height="20" fill="rgb(48,48,0)" />
  <rect x="200" y="80" width="20" height="20" fill="rgb(52,0,0)" />
  <rect x="200" y="60" width="20" height="20" fill="rgb(75,0,0)" />
  <rect x="60" y="120" width="20" height="20" fill="rgb(77,192,192)" />
  <rect x="220" y="140" width="20" height="20" fill="rgb(112,112,0)" />
  <rect x="220" y="160" width="20" height="40" fill="rgb(119,119,0)" />
  <rect x="180" y="40" width="20" height="20" fill="rgb(135,0,0)" />
  <rect x="0" y="80" width="20" height="20" fill="rgb(139,192,192)" />
  <rect x="240" y="140" width="20" height="20" fill="rgb(155,155,0)" />
  <rect x="240" y="200" width="20" height="20" fill="rgb(156,156,0)" />
  <rect x="260" y="160" width="20" height="20" fill="rgb(160,160,0)" />
  <rect x="100" y="120" width="20" height="40" fill="rgb(180,0,0)" />
  <rect x="180" y="80" width="20" height="20" fill="rgb(192,0,0)" />
  <rect x="40" y="180" width="20" height="20" fill="rgb(192,192,132)" />
  <rect x="20" y="160" width="20" height="20" fill="rgb(192,192,204)" />
  <rect x="60" y="180" width="20" height="20" fill="rgb(192,192,239)" />
  <rect x="40" y="140" width="20" height="20" fill="rgb(194,0,0)" />
  <rect x="260" y="180" width="20" height="40" fill="rgb(195,195,0)" />
  <rect x="160" y="100" width="20" height="20" fill="rgb(196,0,0)" />
  <rect x="0" y="140" width="20" height="20" fill="rgb(206,192,192)" />
  <rect x="60" y="100" width="20" height="20" fill="rgb(215,192,192)" />
  <rect x="20" y="100" width="20" height="20" fill="rgb(222,192,192)" />
  <rect x="100" y="100" width="20" height="20" fill="rgb(223,192,192)" />
  <rect x="100" y="160" width="20" height="20" fill="rgb(223,192,192)" />
  <rect x="40" y="100" width="20" height="20" fill="rgb(226,192,192)" />
  <rect x="40" y="160" width="20" height="20" fill="rgb(226,192,192)" />
  <rect x="80" y="100" width="20" height="20" fill="rgb(236,192,192)" />
  <rect x="60" y="160" width="40" height="20" fill="rgb(236,192,192)" />
  <rect x="240" y="160" width="20" height="20" fill="rgb(238,238,0)" />
  <rect x="160" y="60" width="20" height="40" fill="rgb(239,0,0)" />
  <rect x="0" y="120" width="20" height="20" fill="rgb(239,0,0)" />
  <rect x="60" y="140" width="20" height="20" fill="rgb(246,0,0)" />
  <rect x="180" y="60" width="20" height="20" fill="rgb(255,0,0)" />
  <rect x="0" y="100" width="20" height="20" fill="rgb(255,0,0)" />
  <rect x="80" y="120" width="20" height="40" fill="rgb(255,0,0)" />
  <rect x="240" y="180" width="20" height="20" fill="rgb(255,255,0)" />
</svg>